<svg width="24" height="24" viewBox="0 0 24 24" fill="none" xmlns="http://www.w3.org/2000/svg">
<circle cx="12" cy="12" r="9.25" stroke="#121010" stroke-width="1.5"/>
<path d="M11.2857 18V10.5455H12.6905V18H11.2857ZM12 8.9697C11.7262 8.9697 11.4901 8.87326 11.2917 8.6804C11.0972 8.48753 11 8.25568 11 7.98485C11 7.71402 11.0972 7.48217 11.2917 7.2893C11.4901 7.09643 11.7262 7 12 7C12.2738 7 12.5079 7.09643 12.7024 7.2893C12.9008 7.48217 13 7.71402 13 7.98485C13 8.25568 12.9008 8.48753 12.7024 8.6804C12.5079 8.87326 12.2738 8.9697 12 8.9697Z" fill="#121010"/>
</svg>
