<svg width="24" height="24" viewBox="0 0 24 24" fill="none" xmlns="http://www.w3.org/2000/svg">
<path d="M14 4C14 2.89543 13.1046 2 12 2C10.8954 2 10 2.89543 10 4" stroke="#121010" stroke-width="2" stroke-linecap="round" stroke-linejoin="round"/>
<path d="M20.3755 9.82634L21.9727 19.5187C22.1877 20.8234 21.1064 22 19.6925 22H4.30751C2.89357 22 1.81232 20.8234 2.02732 19.5187L3.62448 9.82634C3.79764 8.77562 4.76601 8 5.90468 8H18.0954C19.234 8 20.2024 8.77562 20.3755 9.82634Z" stroke="#121010" stroke-width="2" stroke-linecap="round" stroke-linejoin="round"/>
<path d="M9 15.5H12.5M12.5 15.5H16M12.5 15.5V12M12.5 15.5V19" stroke="#121010" stroke-width="2" stroke-linecap="round" stroke-linejoin="round"/>
</svg>
