<svg width="24" height="24" viewBox="0 0 24 24" fill="none" xmlns="http://www.w3.org/2000/svg">
<path d="M20.4517 16.4341C20.4517 16.7303 20.3858 17.0347 20.2457 17.3308C20.1057 17.627 19.9244 17.9067 19.6855 18.17C19.2818 18.6142 18.837 18.935 18.3344 19.1407C17.8402 19.3464 17.3047 19.4533 16.728 19.4533C15.8877 19.4533 14.9897 19.2559 14.0424 18.8528C13.095 18.4497 12.1476 17.9067 11.2084 17.2239C10.261 16.5328 9.36306 15.7678 8.50629 14.9204C7.65775 14.0649 6.8916 13.1681 6.20783 12.2303C5.5323 11.2925 4.98858 10.3546 4.59315 9.42502C4.19772 8.48718 4 7.59047 4 6.7349C4 6.17549 4.09886 5.64076 4.29657 5.14716C4.49429 4.64533 4.80734 4.18464 5.24397 3.77331C5.77121 3.25503 6.34788 3 6.95751 3C7.18818 3 7.41885 3.04936 7.6248 3.14808C7.839 3.2468 8.02847 3.39488 8.17676 3.60877L10.088 6.29889C10.2363 6.50456 10.3434 6.69377 10.4175 6.87475C10.4917 7.04751 10.5329 7.22027 10.5329 7.37658C10.5329 7.57402 10.4752 7.77146 10.3599 7.96067C10.2528 8.14989 10.0963 8.34733 9.89854 8.54477L9.27244 9.19467C9.18182 9.28516 9.14063 9.39211 9.14063 9.52374C9.14063 9.58955 9.14887 9.64714 9.16534 9.71295C9.19006 9.77876 9.21477 9.82812 9.23125 9.87748C9.37954 10.149 9.63492 10.5027 9.9974 10.9305C10.3681 11.3583 10.7636 11.7943 11.1919 12.2303C11.6368 12.6663 12.0652 13.0694 12.5018 13.4396C12.9302 13.8016 13.2844 14.0484 13.5645 14.1965C13.6057 14.2129 13.6552 14.2376 13.7128 14.2623C13.7787 14.287 13.8446 14.2952 13.9188 14.2952C14.0588 14.2952 14.1659 14.2458 14.2565 14.1553L14.8826 13.5383C15.0886 13.3327 15.2863 13.1764 15.4758 13.0777C15.6653 12.9625 15.8548 12.9049 16.0607 12.9049C16.2172 12.9049 16.382 12.9378 16.5632 13.0118C16.7445 13.0859 16.934 13.1928 17.1399 13.3327L19.8667 15.2659C20.0809 15.414 20.2292 15.5868 20.3198 15.7924C20.4022 15.9981 20.4517 16.2038 20.4517 16.4341Z" stroke="#121010" stroke-width="1.5" stroke-miterlimit="10"/>
</svg>
