<svg width="24" height="24" viewBox="0 0 24 24" fill="none" xmlns="http://www.w3.org/2000/svg">
<path d="M9.73684 18.75H5.87074C5.77946 18.7498 5.69198 18.7174 5.62744 18.6599C5.5629 18.6025 5.52654 18.5245 5.52632 18.4432V5.55675C5.52654 5.47546 5.5629 5.39755 5.62744 5.34006C5.69198 5.28258 5.77946 5.2502 5.87074 5.25H9.73684C10.0719 5.25 10.3931 5.13147 10.63 4.9205C10.8669 4.70952 11 4.42337 11 4.125C11 3.82663 10.8669 3.54048 10.63 3.3295C10.3931 3.11853 10.0719 3 9.73684 3H5.87074C5.10964 3.00079 4.37998 3.27042 3.8418 3.74973C3.30363 4.22904 3.00089 4.8789 3 5.55675V18.4432C3.00089 19.1211 3.30363 19.771 3.8418 20.2503C4.37998 20.7296 5.10964 20.9992 5.87074 21H9.73684C10.0719 21 10.3931 20.8815 10.63 20.6705C10.8669 20.4595 11 20.1734 11 19.875C11 19.5766 10.8669 19.2905 10.63 19.0795C10.3931 18.8685 10.0719 18.75 9.73684 18.75Z" fill="#121010"/>
<path d="M20.0309 9.88564L17.17 7.29345C17.0673 7.20039 16.9454 7.12657 16.8113 7.07622C16.6771 7.02587 16.5334 6.99997 16.3882 7C16.243 7.00003 16.0993 7.02599 15.9652 7.0764C15.831 7.12681 15.7092 7.20068 15.6066 7.29379C15.5039 7.3869 15.4225 7.49743 15.367 7.61906C15.3115 7.7407 15.2829 7.87107 15.2829 8.00271C15.283 8.26859 15.3995 8.52355 15.6069 8.7115L18.1214 10.9909L8.10544 11.0097C7.81226 11.0097 7.53108 11.1153 7.32377 11.3032C7.11647 11.4912 7 11.7462 7 12.012C7 12.2779 7.11647 12.5329 7.32377 12.7208C7.53108 12.9088 7.81226 13.0144 8.10544 13.0144L18.1619 12.9977L15.6069 15.3146C15.4118 15.5047 15.3056 15.7561 15.3108 16.0158C15.316 16.2754 15.4321 16.5232 15.6347 16.7067C15.8374 16.8903 16.1107 16.9954 16.397 16.9999C16.6834 17.0043 16.9605 16.9078 17.17 16.7306L20.0287 14.1385C20.3366 13.8592 20.5809 13.5277 20.7476 13.1629C20.9142 12.798 21 12.407 21 12.012C21 11.6171 20.9142 11.2261 20.7476 10.8612C20.5809 10.4964 20.3366 10.1649 20.0287 9.88564H20.0309Z" fill="#121010"/>
</svg>
