<svg width="24" height="24" viewBox="0 0 24 24" fill="none" xmlns="http://www.w3.org/2000/svg">
<path d="M2.57153 21.0757V20.1052C2.57153 16.3529 5.25783 13.311 8.57153 13.311C11.8852 13.311 14.5715 16.3529 14.5715 20.1052V21.0757" stroke="#121010" stroke-width="1.5" stroke-linecap="round"/>
<path d="M12.8572 14.9244C12.8572 11.5829 14.5841 8.87402 16.7143 8.87402C18.8445 8.87402 20.5715 11.5829 20.5715 14.9244V15.5295" stroke="#121010" stroke-width="1.5" stroke-linecap="round"/>
<path d="M8.57164 13.311C10.4652 13.311 12.0002 11.3244 12.0002 8.87399C12.0002 6.42351 10.4652 4.43701 8.57164 4.43701C6.67809 4.43701 5.14307 6.42351 5.14307 8.87399C5.14307 11.3244 6.67809 13.311 8.57164 13.311Z" stroke="#121010" stroke-width="1.5" stroke-linecap="round" stroke-linejoin="round"/>
<path d="M16.7144 8.87385C17.8979 8.87385 18.8572 7.63229 18.8572 6.10075C18.8572 4.5692 17.8979 3.32764 16.7144 3.32764C15.5309 3.32764 14.5715 4.5692 14.5715 6.10075C14.5715 7.63229 15.5309 8.87385 16.7144 8.87385Z" stroke="#121010" stroke-width="1.5" stroke-linecap="round" stroke-linejoin="round"/>
</svg>
