<svg width="22" height="22" viewBox="0 0 22 22" fill="none" xmlns="http://www.w3.org/2000/svg">
<path d="M14.9839 3.9375L15.3589 3.28798V3.28798L14.9839 3.9375ZM14.9839 18.0621L14.6089 17.4126L14.9839 18.0621ZM5.98387 18.0621L5.60887 18.7117H5.60887L5.98387 18.0621ZM5.98388 3.9375L6.35888 4.58702L6.35888 4.58702L5.98388 3.9375ZM7.40681 2.01508L8.13751 2.18415L7.40681 2.01508ZM8.02302 1.30504L7.83904 0.577959L8.02302 1.30504ZM2.8871 4.49667L2.31758 4.00867L2.8871 4.49667ZM3.79571 17.7402L3.62353 17.0102L3.79571 17.7402ZM2.88683 17.503L2.31729 17.991L2.88683 17.503ZM8.0231 20.695L8.20708 19.9679L8.0231 20.695ZM7.40687 19.9848L8.13758 19.8158L7.40687 19.9848ZM13.5609 19.9848L14.2916 20.1538L13.5609 19.9848ZM12.9447 20.695L12.7607 19.9679L12.9447 20.695ZM18.0809 17.503L18.6504 17.991L18.0809 17.503ZM17.172 17.7402L16.9998 18.4702L17.172 17.7402ZM1.39027 8.68351L0.913355 9.26235L1.39027 8.68351ZM17.1718 4.2595L16.9997 3.52952L17.1718 4.2595ZM18.0806 4.49671L17.5111 4.98471L18.0806 4.49671ZM1.39027 13.3165L0.913354 12.7376L1.39027 13.3165ZM13.561 2.01511L14.2917 1.84603L13.561 2.01511ZM12.9448 1.30509L12.7608 2.03217L12.9448 1.30509ZM12.8303 2.18419C13.0561 3.16005 13.6717 4.04592 14.6089 4.58702L15.3589 3.28798C14.7966 2.96329 14.4277 2.43381 14.2917 1.84603L12.8303 2.18419ZM14.6089 4.58702C15.4699 5.08408 16.4477 5.2008 17.3439 4.98949L16.9997 3.52952C16.4606 3.65663 15.876 3.5865 15.3589 3.28798L14.6089 4.58702ZM21.2338 11C21.2338 8.33125 20.2604 5.88795 18.6501 4.00871L17.5111 4.98471C18.8972 6.6024 19.7338 8.70255 19.7338 11H21.2338ZM18.6504 17.991C20.2605 16.1118 21.2338 13.6686 21.2338 11H19.7338C19.7338 13.2973 18.8973 15.3974 17.5113 17.015L18.6504 17.991ZM15.3589 18.7117C15.876 18.4131 16.4606 18.343 16.9998 18.4702L17.3442 17.0102C16.4478 16.7988 15.4699 16.9155 14.6089 17.4126L15.3589 18.7117ZM14.2916 20.1538C14.4276 19.566 14.7965 19.0364 15.3589 18.7117L14.6089 17.4126C13.6716 17.9538 13.0559 18.8398 12.8302 19.8158L14.2916 20.1538ZM10.4838 21.75C11.3955 21.75 12.2818 21.6363 13.1287 21.422L12.7607 19.9679C12.0331 20.152 11.2704 20.25 10.4838 20.25V21.75ZM7.83912 21.4221C8.68599 21.6363 9.57217 21.75 10.4838 21.75V20.25C9.69726 20.25 8.93464 20.152 8.20708 19.9679L7.83912 21.4221ZM5.60887 18.7117C6.17132 19.0364 6.5402 19.566 6.67616 20.1538L8.13758 19.8158C7.91185 18.8398 7.2962 17.9538 6.35887 17.4126L5.60887 18.7117ZM3.96789 18.4702C4.5071 18.343 5.09175 18.4131 5.60887 18.7117L6.35887 17.4126C5.49783 16.9155 4.51989 16.7988 3.62353 17.0102L3.96789 18.4702ZM0.332044 14.5443C0.777568 15.8205 1.45656 16.9864 2.31729 17.991L3.45637 17.015C2.71501 16.1498 2.13108 15.1466 1.74823 14.0499L0.332044 14.5443ZM1.73386 11C1.73386 11.6994 1.41567 12.3238 0.913354 12.7376L1.86719 13.8953C2.7005 13.2087 3.23386 12.1663 3.23386 11H1.73386ZM0.913355 9.26235C1.41567 9.67622 1.73386 10.3006 1.73386 11H3.23386C3.23386 9.83366 2.7005 8.79126 1.86719 8.10468L0.913355 9.26235ZM2.31758 4.00867C1.45671 5.01334 0.77762 6.17934 0.332045 7.45567L1.74823 7.95007C2.13113 6.85326 2.71514 5.85001 3.45662 4.98468L2.31758 4.00867ZM5.60888 3.28798C5.0918 3.58651 4.5072 3.65664 3.96803 3.5295L3.62376 4.98946C4.52006 5.20081 5.49791 5.0841 6.35888 4.58702L5.60888 3.28798ZM6.67612 1.84601C6.54012 2.43379 6.17126 2.96329 5.60888 3.28798L6.35888 4.58702C7.2961 4.04591 7.91171 3.16003 8.13751 2.18415L6.67612 1.84601ZM10.4838 0.25C9.57214 0.25 8.68593 0.36366 7.83904 0.577959L8.20701 2.03213C8.93459 1.84802 9.69723 1.75 10.4838 1.75V0.25ZM13.1288 0.578005C12.2819 0.363677 11.3956 0.25 10.4838 0.25V1.75C11.2705 1.75 12.0332 1.84803 12.7608 2.03217L13.1288 0.578005ZM8.13751 2.18415C8.15312 2.11668 8.17957 2.06909 8.20009 2.04413C8.21772 2.02269 8.22086 2.02862 8.20701 2.03213L7.83904 0.577959C7.14784 0.752863 6.79093 1.3498 6.67612 1.84601L8.13751 2.18415ZM3.45662 4.98468C3.44748 4.99534 3.44376 4.98984 3.47082 4.98354C3.50227 4.97621 3.55654 4.97361 3.62376 4.98946L3.96803 3.5295C3.47249 3.41265 2.78061 3.4683 2.31758 4.00867L3.45662 4.98468ZM3.62353 17.0102C3.5563 17.0261 3.50203 17.0235 3.47057 17.0162C3.44351 17.0099 3.44723 17.0044 3.45637 17.015L2.31729 17.991C2.78035 18.5314 3.47232 18.5871 3.96789 18.4702L3.62353 17.0102ZM8.20708 19.9679C8.22093 19.9714 8.21779 19.9773 8.20016 19.9559C8.17964 19.9309 8.15319 19.8833 8.13758 19.8158L6.67616 20.1538C6.79094 20.6501 7.14785 21.2471 7.83912 21.4221L8.20708 19.9679ZM12.8302 19.8158C12.8146 19.8833 12.7881 19.9309 12.7676 19.9559C12.75 19.9773 12.7468 19.9714 12.7607 19.9679L13.1287 21.422C13.8199 21.2471 14.1768 20.6501 14.2916 20.1538L12.8302 19.8158ZM17.5113 17.015C17.5205 17.0044 17.5242 17.0099 17.4971 17.0162C17.4657 17.0235 17.4114 17.0261 17.3442 17.0102L16.9998 18.4702C17.4954 18.5871 18.1874 18.5314 18.6504 17.991L17.5113 17.015ZM1.86719 8.10468C1.8063 8.05451 1.77091 8.00024 1.75671 7.96394C1.74478 7.93341 1.75357 7.93478 1.74823 7.95007L0.332045 7.45567C0.066032 8.21766 0.478186 8.9038 0.913355 9.26235L1.86719 8.10468ZM17.3439 4.98949C17.4112 4.97364 17.4654 4.97624 17.4969 4.98357C17.5239 4.98987 17.5202 4.99537 17.5111 4.98471L18.6501 4.00871C18.1871 3.46835 17.4952 3.41269 16.9997 3.52952L17.3439 4.98949ZM1.74823 14.0499C1.75356 14.0652 1.74477 14.0666 1.75671 14.0361C1.77091 13.9998 1.8063 13.9455 1.86719 13.8953L0.913354 12.7376C0.478185 13.0962 0.0660309 13.7823 0.332044 14.5443L1.74823 14.0499ZM14.2917 1.84603C14.1769 1.34983 13.82 0.752916 13.1288 0.578005L12.7608 2.03217C12.747 2.02866 12.7501 2.02273 12.7677 2.04417C12.7883 2.06913 12.8147 2.11672 12.8303 2.18419L14.2917 1.84603Z" fill="#121010"/>
</svg>
